<svg width="22" height="22" viewBox="0 0 22 22" fill="none" xmlns="http://www.w3.org/2000/svg">
<path d="M16.1171 1.34302H5.37249C3.14721 1.34302 1.34326 3.14696 1.34326 5.37224V16.1168C1.34326 18.3421 3.14721 20.1461 5.37249 20.1461H16.1171C18.3424 20.1461 20.1463 18.3421 20.1463 16.1168V5.37224C20.1463 3.14696 18.3424 1.34302 16.1171 1.34302Z" fill="url(#paint0_radial_93_123)"/>
<path d="M16.1171 1.34302H5.37249C3.14721 1.34302 1.34326 3.14696 1.34326 5.37224V16.1168C1.34326 18.3421 3.14721 20.1461 5.37249 20.1461H16.1171C18.3424 20.1461 20.1463 18.3421 20.1463 16.1168V5.37224C20.1463 3.14696 18.3424 1.34302 16.1171 1.34302Z" fill="url(#paint1_radial_93_123)"/>
<path d="M16.1171 1.34302H5.37249C3.14721 1.34302 1.34326 3.14696 1.34326 5.37224V16.1168C1.34326 18.3421 3.14721 20.1461 5.37249 20.1461H16.1171C18.3424 20.1461 20.1463 18.3421 20.1463 16.1168V5.37224C20.1463 3.14696 18.3424 1.34302 16.1171 1.34302Z" fill="url(#paint2_radial_93_123)"/>
<path d="M15.4458 7.05125C15.4458 7.60755 14.9948 8.05856 14.4385 8.05856C13.8822 8.05856 13.4312 7.60755 13.4312 7.05125C13.4312 6.49493 13.8822 6.04395 14.4385 6.04395C14.9948 6.04395 15.4458 6.49493 15.4458 7.05125Z" fill="white"/>
<path fill-rule="evenodd" clip-rule="evenodd" d="M10.7449 14.1023C12.5993 14.1023 14.1026 12.599 14.1026 10.7446C14.1026 8.89027 12.5993 7.38696 10.7449 7.38696C8.89051 7.38696 7.38721 8.89027 7.38721 10.7446C7.38721 12.599 8.89051 14.1023 10.7449 14.1023ZM10.7449 12.7593C11.8576 12.7593 12.7595 11.8573 12.7595 10.7446C12.7595 9.63198 11.8576 8.73004 10.7449 8.73004C9.63222 8.73004 8.73028 9.63198 8.73028 10.7446C8.73028 11.8573 9.63222 12.7593 10.7449 12.7593Z" fill="white"/>
<path fill-rule="evenodd" clip-rule="evenodd" d="M4.0293 10.4761C4.0293 8.21949 4.0293 7.09117 4.46846 6.22929C4.85475 5.47114 5.47114 4.85475 6.22929 4.46846C7.09117 4.0293 8.21949 4.0293 10.4761 4.0293H11.0133C13.2699 4.0293 14.3982 4.0293 15.26 4.46846C16.0182 4.85475 16.6346 5.47114 17.0209 6.22929C17.46 7.09117 17.46 8.21949 17.46 10.4761V11.0133C17.46 13.2699 17.46 14.3982 17.0209 15.26C16.6346 16.0182 16.0182 16.6346 15.26 17.0209C14.3982 17.46 13.2699 17.46 11.0133 17.46H10.4761C8.21949 17.46 7.09117 17.46 6.22929 17.0209C5.47114 16.6346 4.85475 16.0182 4.46846 15.26C4.0293 14.3982 4.0293 13.2699 4.0293 11.0133V10.4761ZM10.4761 5.37237H11.0133C12.1638 5.37237 12.9458 5.37342 13.5503 5.4228C14.1392 5.47091 14.4403 5.55811 14.6503 5.66514C15.1557 5.92268 15.5666 6.3336 15.8242 6.83901C15.9312 7.04907 16.0185 7.35018 16.0665 7.93905C16.1159 8.54357 16.117 9.32558 16.117 10.4761V11.0133C16.117 12.1638 16.1159 12.9458 16.0665 13.5503C16.0185 14.1392 15.9312 14.4403 15.8242 14.6503C15.5666 15.1557 15.1557 15.5666 14.6503 15.8242C14.4403 15.9312 14.1392 16.0185 13.5503 16.0665C12.9458 16.1159 12.1638 16.117 11.0133 16.117H10.4761C9.32558 16.117 8.54357 16.1159 7.93905 16.0665C7.35018 16.0185 7.04907 15.9312 6.83901 15.8242C6.3336 15.5666 5.92268 15.1557 5.66514 14.6503C5.55811 14.4403 5.47091 14.1392 5.4228 13.5503C5.37342 12.9458 5.37237 12.1638 5.37237 11.0133V10.4761C5.37237 9.32558 5.37342 8.54357 5.4228 7.93905C5.47091 7.35018 5.55811 7.04907 5.66514 6.83901C5.92268 6.3336 6.3336 5.92268 6.83901 5.66514C7.04907 5.55811 7.35018 5.47091 7.93905 5.4228C8.54357 5.37342 9.32558 5.37237 10.4761 5.37237Z" fill="white"/>
<defs>
<radialGradient id="paint0_radial_93_123" cx="0" cy="0" r="1" gradientUnits="userSpaceOnUse" gradientTransform="translate(8.05863 15.4453) rotate(-55.3758) scale(17.1374)">
<stop stop-color="#B13589"/>
<stop offset="0.79309" stop-color="#C62F94"/>
<stop offset="1" stop-color="#8A3AC8"/>
</radialGradient>
<radialGradient id="paint1_radial_93_123" cx="0" cy="0" r="1" gradientUnits="userSpaceOnUse" gradientTransform="translate(7.3871 20.8176) rotate(-65.1363) scale(15.1728)">
<stop stop-color="#E0E8B7"/>
<stop offset="0.444662" stop-color="#FB8A2E"/>
<stop offset="0.71474" stop-color="#E2425C"/>
<stop offset="1" stop-color="#E2425C" stop-opacity="0"/>
</radialGradient>
<radialGradient id="paint2_radial_93_123" cx="0" cy="0" r="1" gradientUnits="userSpaceOnUse" gradientTransform="translate(0.335956 2.01456) rotate(-8.1301) scale(26.1167 5.58609)">
<stop offset="0.156701" stop-color="#406ADC"/>
<stop offset="0.467799" stop-color="#6A45BE"/>
<stop offset="1" stop-color="#6A45BE" stop-opacity="0"/>
</radialGradient>
</defs>
</svg>
