<svg width="19" height="19" viewBox="0 0 19 19" fill="none" xmlns="http://www.w3.org/2000/svg">
<g clip-path="url(#clip0_93_150)">
<path d="M15.4224 0H2.7216C1.2185 0 0 1.2185 0 2.7216V15.4224C0 16.9255 1.2185 18.144 2.7216 18.144H15.4224C16.9255 18.144 18.144 16.9255 18.144 15.4224V2.7216C18.144 1.2185 16.9255 0 15.4224 0Z" fill="#25D366"/>
<path d="M4.35925 13.9269L4.85538 11.6235C4.21771 10.6177 3.96896 9.41381 4.15578 8.23767C4.34261 7.06154 4.95218 5.99399 5.87012 5.23532C6.78807 4.47666 7.9513 4.07901 9.14157 4.11699C10.3319 4.15497 11.4674 4.62597 12.3351 5.44162C13.2028 6.25726 13.743 7.3615 13.8545 8.54715C13.966 9.73281 13.641 10.9184 12.9405 11.8815C12.24 12.8445 11.2122 13.5189 10.0498 13.7781C8.88747 14.0372 7.67051 13.8633 6.62725 13.289L4.35925 13.9269Z" fill="#25D366" stroke="white" stroke-width="1.07494"/>
<path d="M10.9152 9.6743C10.8089 9.60343 10.7025 9.56799 10.5962 9.70974L10.171 10.2767C10.0647 10.3476 9.99379 10.3831 9.85204 10.3122C9.32048 10.0287 8.57629 9.70974 7.93842 8.64662C7.90298 8.50487 7.97386 8.43399 8.04473 8.36312L8.36367 7.86699C8.43454 7.79612 8.39911 7.72524 8.36367 7.65437L7.93842 6.62668C7.83211 6.34318 7.72579 6.37861 7.61948 6.37861H7.33598C7.26511 6.37861 7.12336 6.41405 6.98161 6.5558C6.20198 7.33543 6.52092 8.43399 7.08792 9.14274C7.19423 9.28449 7.90298 10.5602 9.42679 11.2336C10.5608 11.7297 10.8089 11.6588 11.1278 11.5879C11.5176 11.5525 11.9074 11.2336 12.0846 10.9146C12.12 10.8083 12.2972 10.3476 12.1555 10.2767" fill="white"/>
</g>
<defs>
<clipPath id="clip0_93_150">
<rect width="18.144" height="18.144" fill="white"/>
</clipPath>
</defs>
</svg>
